# xmcd
#
# Track frame offsets:
#	150
#	14444
#	30424
#	45716
#	65938
#	78232
#	101139
#	123672
#	140484
#	150440
#	163297
#	183522
#	199064
#	219459
#	240426
#	258148
#
# Disc length: 3630 seconds
#
# Revision: 1
# Processed by: cddbd v1.5.2PL0 Copyright (c) Steve Scherf et al.
# Submitted via: audiograbber 1.83.01
#
DISCID=de0e2c10
DTITLE=Georgia Anne Muldow - Vweto II
DYEAR=2019
DGENRE=Hip-Hop
TTITLE0=Almost Trendy
TTITLE1=Bass Attack Bap
TTITLE2=Big Mama Africa Jam
TTITLE3=Brokenfolks
TTITLE4=Bronx Skates
TTITLE5=CV Jam Number 2
TTITLE6=Emo Blues
TTITLE7=Das Funk
TTITLE8=Gettin It
TTITLE9=Mary Lou's Motherboard
TTITLE10=Nate Dogg's Eulogy
TTITLE11=Old School Funk
TTITLE12=Something Fun
TTITLE13=When the Fonk Radiates
TTITLE14=Wu Punk
TTITLE15=Yoyo Ma Fonk
EXTD=
EXTT0=
EXTT1=
EXTT2=
EXTT3=
EXTT4=
EXTT5=
EXTT6=
EXTT7=
EXTT8=
EXTT9=
EXTT10=
EXTT11=
EXTT12=
EXTT13=
EXTT14=
EXTT15=
PLAYORDER=
